<svg viewBox="0 0 200 200" xmlns="http://www.w3.org/2000/svg">
  <path fill="#FF0066" d="M43.5,-77.2C55.8,-68.3,64.8,-55.4,70.1,-41.9C75.5,-28.4,77.2,-14.2,78.1,0.5C79,15.2,79,30.4,73,42.9C67.1,55.3,55,64.8,41.8,73.6C28.7,82.3,14.3,90.2,-0.4,90.9C-15.1,91.5,-30.1,84.9,-42.6,75.7C-55.1,66.6,-65,54.9,-71.6,41.9C-78.3,28.8,-81.8,14.4,-82.1,-0.2C-82.5,-14.8,-79.6,-29.6,-72.3,-41.5C-65,-53.5,-53.2,-62.6,-40.4,-71.3C-27.6,-79.9,-13.8,-88.1,0.9,-89.7C15.6,-91.3,31.2,-86.2,43.5,-77.2Z" transform="translate(100 100)" />
</svg>