<svg width="76" height="76" viewBox="0 0 76 76" fill="none" xmlns="http://www.w3.org/2000/svg">
<rect width="76" height="76" fill="black"/>
<path d="M33.68 45.92H46C46.6133 45.92 47.0667 45.9467 47.36 46C47.68 46.0267 48.04 46.1467 48.44 46.36C49.16 46.7333 49.52 47.7733 49.52 49.48C49.52 51.3467 49.0267 52.44 48.04 52.76C47.5867 52.92 46.8933 53 45.96 53H30.12C28.2533 53 27.16 52.4933 26.84 51.48C26.68 51.0533 26.6 50.3733 26.6 49.44V27.2C26.6 25.84 26.8533 24.92 27.36 24.44C27.8667 23.9333 28.8267 23.68 30.24 23.68H46C46.6133 23.68 47.0667 23.7067 47.36 23.76C47.68 23.7867 48.04 23.9067 48.44 24.12C49.16 24.4933 49.52 25.5333 49.52 27.24C49.52 29.1067 49.0267 30.2 48.04 30.52C47.5867 30.68 46.8933 30.76 45.96 30.76H33.68V34.8H41.6C42.2133 34.8 42.6667 34.8267 42.96 34.88C43.28 34.9067 43.64 35.0267 44.04 35.24C44.76 35.6133 45.12 36.6533 45.12 38.36C45.12 40.2267 44.6133 41.32 43.6 41.64C43.1467 41.8 42.4533 41.88 41.52 41.88H33.68V45.92Z" fill="white"/>
</svg>
